<?xml version="1.0" standalone="no"?><!DOCTYPE svg PUBLIC "-//W3C//DTD SVG 1.1//EN" "http://www.w3.org/Graphics/SVG/1.1/DTD/svg11.dtd"><svg t="1555751129496" class="icon" style="" viewBox="0 0 1024 1024" version="1.1" xmlns="http://www.w3.org/2000/svg" p-id="1162" xmlns:xlink="http://www.w3.org/1999/xlink" width="200" height="200"><defs><style type="text/css"></style></defs><path d="M540.032 70.976c-245.952 0-446.016 200.064-446.016 446.016s200.064 446.016 446.016 446.016 446.016-200.064 446.016-446.016-200.064-446.016-446.016-446.016z m0 828.032c-210.624 0-382.016-171.392-382.016-382.016s171.392-382.016 382.016-382.016 382.016 171.392 382.016 382.016-171.392 382.016-382.016 382.016z" p-id="1163" fill="#FF0000"></path><path d="M417.152 643.84c0 35.2 24.96 49.6 55.424 32l219.584-126.784c30.528-17.6 30.528-46.4 0-64L472.576 358.208c-30.528-17.6-55.424-3.2-55.424 32v253.632z" p-id="1164" fill="#FF0000"></path></svg>